<svg xmlns="http://www.w3.org/2000/svg" xmlns:cc="http://web.resource.org/cc/" xmlns:svg="http://www.w3.org/2000/svg" xmlns:xlink="http://www.w3.org/1999/xlink" id="svg2183" width="256" height="256" version="1.0"><defs id="defs2185"><linearGradient id="linearGradient3213"><stop id="stop3215" offset="0" stop-color="#ff0" stop-opacity="1"/><stop id="stop3217" offset="1" stop-color="#ff7e00" stop-opacity="1"/></linearGradient><radialGradient id="radialGradient3219" cx="49.258" cy="185.398" r="46.746" fx="49.258" fy="185.398" gradientTransform="matrix(1.2183687,-2.3328274e-2,2.0681441e-2,0.8724897,-14.066658,22.826651)" gradientUnits="userSpaceOnUse" xlink:href="#linearGradient3213"/></defs><metadata id="metadata2188"/><g id="layer1"><path id="path3211" fill="url(#radialGradient3219)" fill-opacity="1" stroke="#e05e22" stroke-opacity=".498" d="M 94.545453,209.45455 L 48.299304,209.97296 L 2.0531544,210.49137 L 24.727273,170.18183 L 47.401392,129.87228 L 70.973423,169.66342 L 94.545453,209.45455 z" transform="matrix(1.7097836,2.3674872e-2,-2.0514225e-2,1.9732115,1.7249503,-160.45999)"/><path id="path3234" fill="#000" fill-opacity="1" stroke="#e05e22" stroke-opacity=".498" stroke-width="1.736" d="M 86.792406,126.45453 C 87.690625,155.51772 88.089467,183.08852 88.216139,211.58738 L 73.674387,216.92377 C 73.626091,186.22764 72.163762,161.91581 71.973032,133.55168 L 86.792406,126.45453 z"/><path id="path3236" fill="#000" fill-opacity="1" stroke="#e05e22" stroke-opacity=".498" stroke-width="1.579" d="M 87.185096,223.31084 C 87.167613,226.76143 87.262161,234.80822 87.390026,237.79632 L 72.711061,242.16963 C 73.278425,234.47118 73.958711,235.23778 74.074237,227.18738 L 87.185096,223.31084 z"/></g></svg>