<svg xmlns="http://www.w3.org/2000/svg" xmlns:cc="http://web.resource.org/cc/" xmlns:svg="http://www.w3.org/2000/svg" xmlns:xlink="http://www.w3.org/1999/xlink" id="svg2183" width="256" height="256" version="1.0"><defs id="defs2185"><linearGradient id="linearGradient3145"><stop id="stop3147" offset="0" stop-color="#f03300" stop-opacity=".83"/><stop id="stop3149" offset="1" stop-color="#910000" stop-opacity="1"/></linearGradient><radialGradient id="radialGradient3151" cx="47.5" cy="211.141" r="47.5" fx="47.5" fy="211.141" gradientTransform="matrix(1.6662189,0,0,1.6662192,0.8546043,-175.80653)" gradientUnits="userSpaceOnUse" xlink:href="#linearGradient3145"/></defs><metadata id="metadata2188"/><g id="layer1"><path id="path2162" fill="url(#radialGradient3151)" fill-opacity="1" fill-rule="evenodd" stroke="#740000" stroke-linecap="butt" stroke-linejoin="miter" stroke-opacity=".764" stroke-width="1.709" d="M 31.211027,96.854604 L 1.1670204,124.57875 C 13.677871,155.30823 31.995287,170.92366 52.090834,184.51998 C 39.882584,197.33379 24.158526,208.5845 0.85460434,215.91514 L 24.1296,255.1454 C 52.129391,237.83098 68.751151,220.84447 81.926562,204.2447 C 98.679658,216.05168 115.38971,230.65475 129.93449,254.81668 L 159.04125,227.47603 C 144.55184,197.32969 126.36664,181.85606 107.64881,169.4525 C 119.96023,153.35121 134.45042,137.68069 159.1454,122.6063 L 137.38041,96.909387 C 106.65384,107.01262 92.405444,128.18801 77.708948,150.44006 C 60.253314,138.65777 43.835212,124.12405 31.211027,96.854604 z"/></g></svg>