<svg xmlns="http://www.w3.org/2000/svg" xmlns:cc="http://web.resource.org/cc/" xmlns:svg="http://www.w3.org/2000/svg" xmlns:xlink="http://www.w3.org/1999/xlink" id="svg2183" width="256" height="256" version="1.0"><defs id="defs2185"><linearGradient id="linearGradient4154"><stop id="stop4156" offset="0" stop-color="#f6833d" stop-opacity=".612"/><stop id="stop4158" offset="1" stop-color="#b00400" stop-opacity="1"/></linearGradient><radialGradient id="radialGradient4162" cx="47.119" cy="208.495" r="47.49" fx="47.119" fy="208.495" gradientUnits="userSpaceOnUse" xlink:href="#linearGradient4154"/></defs><metadata id="metadata2188"/><g id="layer1"><path id="path3183" fill="url(#radialGradient4162)" fill-opacity="1" stroke="none" stroke-opacity=".764" d="M 94.109486 208.49529 A 46.990459 46.990459 0 1 1 0.12856674,208.49529 A 46.990459 46.990459 0 1 1 94.109486 208.49529 z" transform="matrix(1.7024809,0,0,1.7046963,0.281369,-179.98661)"/><path id="path3158" fill="#fff" fill-opacity="1" fill-rule="evenodd" stroke="#c8c8c8" stroke-linecap="butt" stroke-linejoin="miter" stroke-opacity="1" stroke-width="1.805" d="M 74.876099,114.24837 C 66.159408,144.87776 64.620625,176.89655 73.026032,210.30089 L 85.359815,209.95163 C 94.149732,176.90487 92.880627,148.03847 84.434782,113.89906 L 74.876099,114.24837 z"/><path id="path3160" fill="#fff" fill-opacity="1" stroke="#c8c8c8" stroke-opacity="1" d="M 52.545455 243.63637 A 5.2727275 4.909091 0 1 1 42,243.63637 A 5.2727275 4.909091 0 1 1 52.545455 243.63637 z" opacity="1" transform="matrix(1.7021375,0,0,1.7046113,-4.1445146e-2,-177.49443)"/></g></svg>