<svg xmlns="http://www.w3.org/2000/svg" xmlns:cc="http://web.resource.org/cc/" xmlns:svg="http://www.w3.org/2000/svg" xmlns:xlink="http://www.w3.org/1999/xlink" id="svg3321" width="130.036" height="101.51" version="1.0"><defs id="defs3323"><linearGradient id="linearGradient5301"><stop id="stop5303" offset="0" stop-color="#effb00" stop-opacity="1"/><stop id="stop5305" offset="1" stop-color="#ff8d88" stop-opacity=".413"/></linearGradient><linearGradient id="linearGradient4300"><stop id="stop4302" offset="0" stop-color="#1221c8" stop-opacity="1"/><stop id="stop4304" offset="1" stop-color="#1221c8" stop-opacity=".355"/></linearGradient><radialGradient id="radialGradient4308" cx="91.04" cy="72.262" r="46.841" fx="91.04" fy="72.262" gradientTransform="matrix(1,0,0,1.0835669,0,-6.0386851)" gradientUnits="userSpaceOnUse" xlink:href="#linearGradient4300"/><radialGradient id="radialGradient5307" cx="149.755" cy="49.281" r="22.113" fx="149.755" fy="49.281" gradientTransform="matrix(1,0,0,1.1086829,0,-5.3559677)" gradientUnits="userSpaceOnUse" xlink:href="#linearGradient5301"/></defs><metadata id="metadata3326"/><g id="layer1" transform="translate(-44.19925,-21.506586)"><path id="path3329" fill="url(#radialGradient4308)" fill-opacity="1" fill-rule="evenodd" stroke="#13135c" stroke-linecap="butt" stroke-linejoin="miter" stroke-opacity="1" stroke-width="1" d="M 78.286822,22.006586 C 63.954461,27.483553 54.457356,35.084721 44.69925,46.502784 C 55.221673,39.490556 63.72379,35.077735 73.23606,35.643645 L 72.730983,122.51676 L 82.579971,122.51676 L 82.832509,94.990107 L 129.55207,59.129691 C 131.37603,65.336533 129.13902,70.731181 127.7843,76.302285 C 131.67376,69.002398 137.39864,60.365865 138.13836,51.806085 C 132.18888,46.455086 127.03325,44.197407 120.46069,41.957098 C 123.40735,44.920136 126.12467,47.929043 125.764,51.553547 L 82.579971,84.130967 L 82.579971,35.643645 C 88.955934,35.031696 100.1214,38.106045 108.84394,44.482479 C 96.839679,31.438116 91.447014,25.087393 78.286822,22.006586 z"/><path id="path4312" fill="url(#radialGradient5307)" fill-opacity="1" fill-rule="nonzero" stroke="#f3502f" stroke-dasharray="none" stroke-linecap="round" stroke-linejoin="round" stroke-miterlimit="4" stroke-opacity="1" stroke-width="1.473" d="M 169.20056,62.16015 L 154.95539,59.719027 L 148.32392,72.560669 L 143.3154,59.003423 L 128.87848,59.681224 L 138.11514,48.5651 L 130.30969,36.401259 L 144.55487,38.842382 L 151.18634,26.00074 L 156.19485,39.557986 L 170.63177,38.880185 L 161.39511,49.996309 L 169.20056,62.16015 z" opacity="1" transform="matrix(0.9152852,-0.4028065,0.4028065,0.9152852,-6.4064907,62.2243)"/></g></svg>