<svg xmlns="http://www.w3.org/2000/svg" xmlns:svg="http://www.w3.org/2000/svg" xmlns:xlink="http://www.w3.org/1999/xlink" id="svg5378" width="186.693" height="206.074" version="1.1"><defs id="defs3"><linearGradient id="linearGradient6035"><stop id="stop6037" offset="0" stop-color="#fff" stop-opacity="1"/><stop id="stop6039" offset="1" stop-color="#fff" stop-opacity="0"/></linearGradient><linearGradient id="linearGradient5495"><stop id="stop5497" offset="0" stop-color="#c6c6c6" stop-opacity="1"/><stop id="stop5501" offset=".205" stop-color="#e3e3e3" stop-opacity="1"/><stop id="stop5499" offset="1" stop-color="#a5a5a8" stop-opacity="1"/></linearGradient><linearGradient id="linearGradient5474"><stop id="stop5476" offset="0" stop-color="#c3c3c3" stop-opacity="1"/><stop id="stop5482" offset=".388" stop-color="#808184" stop-opacity="1"/><stop id="stop5484" offset=".571" stop-color="#7f7f84" stop-opacity="1"/><stop id="stop5486" offset=".897" stop-color="#a5a6aa" stop-opacity="1"/><stop id="stop5478" offset="1" stop-color="#9b9b9e" stop-opacity="1"/></linearGradient><linearGradient id="linearGradient5466"><stop id="stop5468" offset="0" stop-color="#e3e3e3" stop-opacity="1"/><stop id="stop5470" offset="1" stop-color="#a5a5a8" stop-opacity="1"/></linearGradient><linearGradient id="linearGradient5472" x1="282.357" x2="286.631" y1="518.557" y2="527.335" gradientUnits="userSpaceOnUse" xlink:href="#linearGradient5466"/><linearGradient id="linearGradient5480" x1="288.399" x2="327.793" y1="532.007" y2="532.007" gradientUnits="userSpaceOnUse" xlink:href="#linearGradient5474"/><linearGradient id="linearGradient5490" x1="282.357" x2="286.631" y1="518.557" y2="527.335" gradientTransform="matrix(1.1818182,0,0,1.1818182,-30.64896,-69.394391)" gradientUnits="userSpaceOnUse" xlink:href="#linearGradient5466"/><linearGradient id="linearGradient5493" x1="269.97" x2="286.628" y1="511.966" y2="511.966" gradientTransform="matrix(1.1818182,0,0,1.1818182,-30.64896,-69.394391)" gradientUnits="userSpaceOnUse" spreadMethod="reflect" xlink:href="#linearGradient5495"/><linearGradient id="linearGradient6015" x1="282.357" x2="286.631" y1="518.557" y2="527.335" gradientTransform="matrix(1.1818182,0,0,1.1818182,-31.65912,-123.63805)" gradientUnits="userSpaceOnUse" xlink:href="#linearGradient5466"/><linearGradient id="linearGradient6041" x1="308.5" x2="327.781" y1="522.612" y2="520.328" gradientTransform="translate(0,0.25)" gradientUnits="userSpaceOnUse" spreadMethod="reflect" xlink:href="#linearGradient6035"/><linearGradient id="linearGradient6045" x1="308.5" x2="327.781" y1="522.612" y2="520.328" gradientTransform="translate(0,16)" gradientUnits="userSpaceOnUse" spreadMethod="reflect" xlink:href="#linearGradient6035"/><linearGradient id="linearGradient6049" x1="308.5" x2="327.781" y1="522.612" y2="520.328" gradientTransform="translate(0,15.417003)" gradientUnits="userSpaceOnUse" spreadMethod="reflect" xlink:href="#linearGradient6035"/><linearGradient id="linearGradient6052" x1="308.5" x2="327.781" y1="522.612" y2="520.328" gradientTransform="translate(0,12)" gradientUnits="userSpaceOnUse" spreadMethod="reflect" xlink:href="#linearGradient6035"/><linearGradient id="linearGradient6056" x1="308.5" x2="327.781" y1="522.612" y2="520.328" gradientTransform="translate(0,22)" gradientUnits="userSpaceOnUse" spreadMethod="reflect" xlink:href="#linearGradient6035"/><linearGradient id="linearGradient6064" x1="308.5" x2="327.781" y1="522.612" y2="520.328" gradientTransform="translate(0,28)" gradientUnits="userSpaceOnUse" spreadMethod="reflect" xlink:href="#linearGradient6035"/><linearGradient id="linearGradient6077" x1="308.5" x2="327.781" y1="522.612" y2="520.328" gradientTransform="translate(0,12)" gradientUnits="userSpaceOnUse" spreadMethod="reflect" xlink:href="#linearGradient6035"/><filter id="filter6093" width="1.129" height="1.386" x="-.064" y="-.193" color-interpolation-filters="sRGB"><feGaussianBlur id="feGaussianBlur6095" stdDeviation=".893"/></filter><linearGradient id="linearGradient6110" x1="269.97" x2="286.628" y1="511.966" y2="511.966" gradientTransform="matrix(1.1818182,0,0,1.1818182,-30.64896,-69.394391)" gradientUnits="userSpaceOnUse" spreadMethod="reflect" xlink:href="#linearGradient5495"/><linearGradient id="linearGradient6112" x1="282.357" x2="286.631" y1="518.557" y2="527.335" gradientUnits="userSpaceOnUse" xlink:href="#linearGradient5466"/><linearGradient id="linearGradient6114" x1="308.5" x2="327.781" y1="522.612" y2="520.328" gradientTransform="translate(0,0.25)" gradientUnits="userSpaceOnUse" spreadMethod="reflect" xlink:href="#linearGradient6035"/><linearGradient id="linearGradient6116" x1="308.5" x2="327.781" y1="522.612" y2="520.328" gradientTransform="translate(0,12)" gradientUnits="userSpaceOnUse" spreadMethod="reflect" xlink:href="#linearGradient6035"/><linearGradient id="linearGradient6118" x1="308.5" x2="327.781" y1="522.612" y2="520.328" gradientTransform="translate(0,22)" gradientUnits="userSpaceOnUse" spreadMethod="reflect" xlink:href="#linearGradient6035"/></defs><metadata id="metadata4"/><g id="layer1" transform="translate(-285.86708,-510.6882)"><g id="g6097" transform="matrix(4.1992341,0,0,4.1992341,-914.55576,-1633.811)"><path id="path6079" fill="#2e3436" fill-opacity="1" stroke="none" d="m 303.29832,521.77954 c 0,3.06841 -7.46231,5.55584 -16.66752,5.55584 -9.20522,0 -16.66752,-2.48743 -16.66752,-5.55584 0,-3.0684 7.4623,-5.55584 16.66752,-5.55584 9.20521,0 16.66752,2.48744 16.66752,5.55584 z" filter="url(#filter6093)" transform="matrix(1.1818182,0,0,1.1818182,-30.64896,-65.983596)"/><path id="path5488" fill="url(#linearGradient6110)" fill-opacity="1" stroke="none" d="m 288.40625,517.5 0,30.09191 0.125,0 c -0.0806,0.24126 -0.125,0.47032 -0.125,0.71875 0,3.6263 8.80861,6.5625 19.6875,6.5625 10.87889,0 19.6875,-2.9362 19.6875,-6.5625 0,-0.24879 -0.0442,-0.47715 -0.125,-0.71875 l 0.125,0 0,-30.09191 -39.375,0 z"/><path id="path5460" fill="url(#linearGradient6112)" fill-opacity="1" stroke="none" d="m 303.29832,521.77954 c 0,3.06841 -7.46231,5.55584 -16.66752,5.55584 -9.20522,0 -16.66752,-2.48743 -16.66752,-5.55584 0,-3.0684 7.4623,-5.55584 16.66752,-5.55584 9.20521,0 16.66752,2.48744 16.66752,5.55584 z" transform="matrix(1.1818182,0,0,1.1818182,-30.64896,-99.394391)"/><path id="path6026" fill="#565656" fill-opacity="1" stroke="none" d="m 288.375,539.09375 c 0.14735,3.58398 8.93182,6.46875 19.71875,6.46875 10.75628,0 19.4918,-2.86766 19.6875,-6.4375 -3.45152,2.93589 -10.95919,4.96875 -19.6875,4.96875 -8.74612,0 -16.27686,-2.05444 -19.71875,-5 z"/><path id="path6030" fill="url(#linearGradient6114)" fill-opacity="1" stroke="none" d="m 288.375,517.34375 c 0.14735,3.58398 8.93182,6.46875 19.71875,6.46875 10.75628,0 19.4918,-2.86766 19.6875,-6.4375 -0.21572,0.18349 -0.44078,0.35509 -0.6875,0.53125 -0.009,0.0117 -0.0216,0.0196 -0.0312,0.0312 -2.29214,2.77744 -9.90349,4.8125 -18.96875,4.8125 -9.12203,0 -16.78563,-2.07074 -19.03125,-4.875 -0.0249,-0.0179 -0.038,-0.0446 -0.0625,-0.0625 -0.21872,-0.15969 -0.43159,-0.30323 -0.625,-0.46875 z"/><g id="g6071"><g id="g6067" transform="translate(0,-0.52315203)"><path id="path6022" fill="#565656" fill-opacity="1" stroke="none" d="m 288.375,529.09375 c 0.14735,3.58398 8.93182,6.46875 19.71875,6.46875 10.75628,0 19.4918,-2.86766 19.6875,-6.4375 -3.45152,2.93589 -10.95919,4.96875 -19.6875,4.96875 -8.74612,0 -16.27686,-2.05444 -19.71875,-5 z"/><path id="path6043" fill="url(#linearGradient6116)" fill-opacity="1" stroke="none" d="m 288.375,529.09375 c 0.14735,3.58398 8.93182,6.46875 19.71875,6.46875 10.75628,0 19.4918,-2.86766 19.6875,-6.4375 -0.0497,0.0422 -0.10543,0.0838 -0.15625,0.125 -1.24216,3.22677 -9.51064,5.71875 -19.53125,5.71875 -10.11275,0 -18.46774,-2.51121 -19.59375,-5.78125 -0.0401,-0.0317 -0.0863,-0.0607 -0.125,-0.0937 z"/></g><path id="path6054" fill="url(#linearGradient6118)" fill-opacity="1" stroke="none" d="m 288.375,539.09375 c 0.14735,3.58398 8.93182,6.46875 19.71875,6.46875 10.75628,0 19.4918,-2.86766 19.6875,-6.4375 -0.0497,0.0422 -0.10543,0.0838 -0.15625,0.125 -1.24216,3.22677 -9.51064,5.71875 -19.53125,5.71875 -10.11275,0 -18.46774,-2.51121 -19.59375,-5.78125 -0.0401,-0.0317 -0.0863,-0.0607 -0.125,-0.0937 z"/></g><path id="path6060" fill="#565656" fill-opacity="1" stroke="none" d="m 288.5,549.9375 c 1.12601,3.27004 9.481,5.78125 19.59375,5.78125 10.02061,0 18.28909,-2.49198 19.53125,-5.71875 -3.51634,2.86779 -10.92856,4.84375 -19.53125,4.84375 -8.64783,0 -16.10003,-2.01374 -19.59375,-4.90625 z"/></g></g></svg>