<svg xmlns="http://www.w3.org/2000/svg" xmlns:svg="http://www.w3.org/2000/svg" xmlns:xlink="http://www.w3.org/1999/xlink" id="svg2314" width="30.261" height="30.261" version="1.0"><title id="title4635">Patch</title><defs id="defs2316"><linearGradient id="linearGradient4577"><stop id="stop4573" offset="0" stop-color="#000" stop-opacity="1"/><stop id="stop4575" offset="1" stop-color="#000" stop-opacity="0"/></linearGradient><linearGradient id="linearGradient3293"><stop id="stop4540" offset="0" stop-color="#4a74f1" stop-opacity="1"/><stop id="stop4542" offset="1" stop-color="#e0e8ff" stop-opacity="1"/></linearGradient><linearGradient id="linearGradient3293-5"><stop id="stop3295" offset="0" stop-color="#4a74f1" stop-opacity="1"/><stop id="stop3297" offset="1" stop-color="#e0e8ff" stop-opacity="1"/></linearGradient><filter id="filter6100" width="1.071" height="1.071" x="-.035" y="-.035" color-interpolation-filters="sRGB"><feGaussianBlur id="feGaussianBlur6102" stdDeviation=".073"/></filter><filter id="filter6104" width="1.071" height="1.071" x="-.035" y="-.035" color-interpolation-filters="sRGB"><feGaussianBlur id="feGaussianBlur6106" stdDeviation=".073"/></filter><filter id="filter6108" width="1.071" height="1.071" x="-.035" y="-.035" color-interpolation-filters="sRGB"><feGaussianBlur id="feGaussianBlur6110" stdDeviation=".073"/></filter><filter id="filter6112" width="1.071" height="1.071" x="-.035" y="-.035" color-interpolation-filters="sRGB"><feGaussianBlur id="feGaussianBlur6114" stdDeviation=".073"/></filter><linearGradient id="linearGradient6187" x1="37.971" x2="62.895" y1="-88.066" y2="-141.813" gradientTransform="rotate(-45,50.930117,-116.53535)" gradientUnits="userSpaceOnUse" xlink:href="#linearGradient3293-5"/><linearGradient id="linearGradient6189" x1="37.971" x2="62.895" y1="-88.066" y2="-141.813" gradientTransform="rotate(-45,50.432588,-114.9395)" gradientUnits="userSpaceOnUse" xlink:href="#linearGradient3293"/><linearGradient id="linearGradient4579-1" x1="-13.8" x2="-13.8" y1="-61.19" y2="-60.135" gradientTransform="translate(76.110699,106.11545)" gradientUnits="userSpaceOnUse" xlink:href="#linearGradient4577"/><linearGradient id="linearGradient4629" x1="-13.8" x2="-13.8" y1="-61.19" y2="-60.135" gradientTransform="translate(-47.82878,37.745828)" gradientUnits="userSpaceOnUse" xlink:href="#linearGradient4577"/></defs><metadata id="metadata2319"/><g id="layer1" transform="translate(-287.36579,-104.78715)"><g id="layer1-7" transform="matrix(0.54441961,0,0,0.54441961,282.17679,98.970235)"><g id="g6179" transform="rotate(45,-59.092443,92.185953)"><g id="g3250" transform="rotate(-90,66.700565,65.031435)"><g id="g4615"><g id="g4627" transform="rotate(45,56.808463,80.938973)"><g id="g4544" transform="rotate(-45,38.86192,-69.478595)"><g id="g5293" transform="translate(-16.349249,53.010053)"><path id="rect5267-1" fill="url(#linearGradient6189)" fill-opacity="1" stroke="#000" stroke-dasharray="none" stroke-linejoin="round" stroke-miterlimit="4" stroke-opacity="1" stroke-width="1.837" d="m 60.622994,-87.125088 -2e-6,-55.628832 H 40.242187 l 8e-6,55.628829 z" opacity="1" paint-order="stroke markers fill"/><path id="rect5267" fill="url(#linearGradient6187)" fill-opacity="1" stroke="#000" stroke-dasharray="none" stroke-dashoffset="0" stroke-linecap="butt" stroke-linejoin="round" stroke-miterlimit="4" stroke-opacity="1" stroke-width="1.837" d="M 78.246999,-125.12991 H 61.280051 l -1.035003,-0.20294 h -19.27946 l -1.177062,0.20294 H 22.61817 l -3e-6,20.3808 H 39.80882 l 0.730591,0.20294 h 20.070933 l 0.872649,-0.20294 h 16.763999 z" opacity="1" paint-order="stroke markers fill"/></g><rect id="rect5994" width="21.703" height="21.395" x="-72.852" y="-44.882" fill="#000" fill-opacity="1" stroke="none" stroke-dasharray="none" stroke-linecap="round" stroke-linejoin="miter" stroke-miterlimit="1" stroke-opacity="1" stroke-width="1.211" opacity=".2" paint-order="stroke markers fill" ry="0" transform="rotate(90)"/><circle id="path6007" cx="40.526" cy="-68.039" r="2.476" fill="#fff" fill-opacity="1" stroke="none" stroke-dasharray="none" stroke-linecap="round" stroke-linejoin="miter" stroke-miterlimit="1" stroke-opacity="1" stroke-width="1.135" filter="url(#filter6112)" opacity=".9" paint-order="stroke markers fill" transform="rotate(45,38.861531,-69.477635)"/><circle id="path6007-6" cx="47.774" cy="-60.791" r="2.476" fill="#fff" fill-opacity="1" stroke="none" stroke-dasharray="none" stroke-linecap="round" stroke-linejoin="miter" stroke-miterlimit="1" stroke-opacity="1" stroke-width="1.135" filter="url(#filter6100)" opacity=".9" paint-order="stroke markers fill" transform="rotate(45,38.861531,-69.477635)"/><circle id="path6007-7" cx="34.194" cy="-61.707" r="2.476" fill="#fff" fill-opacity="1" stroke="none" stroke-dasharray="none" stroke-linecap="round" stroke-linejoin="miter" stroke-miterlimit="1" stroke-opacity="1" stroke-width="1.135" filter="url(#filter6108)" opacity=".9" paint-order="stroke markers fill" transform="rotate(45,38.861531,-69.477635)"/><circle id="path6007-4" cx="41.442" cy="-54.459" r="2.476" fill="#fff" fill-opacity="1" stroke="none" stroke-dasharray="none" stroke-linecap="round" stroke-linejoin="miter" stroke-miterlimit="1" stroke-opacity="1" stroke-width="1.135" filter="url(#filter6104)" opacity=".9" paint-order="stroke markers fill" transform="rotate(45,38.861531,-69.477635)"/><rect id="rect5994-5" width="20.668" height="1.141" x="-72.304" y="-23.487" fill="url(#linearGradient4629)" fill-opacity="1" stroke="none" stroke-dasharray="none" stroke-linecap="round" stroke-linejoin="miter" stroke-miterlimit="1" stroke-opacity="1" stroke-width=".273" opacity=".2" paint-order="stroke markers fill" ry="0" transform="rotate(90)"/><rect id="rect5994-5-1" width="20.668" height="1.141" x="51.636" y="44.882" fill="url(#linearGradient4579-1)" fill-opacity="1" stroke="none" stroke-dasharray="none" stroke-linecap="round" stroke-linejoin="miter" stroke-miterlimit="1" stroke-opacity="1" stroke-width=".273" opacity=".2" paint-order="stroke markers fill" ry="0" transform="rotate(-90)"/></g><g id="text4157" fill="#000" fill-opacity="1" stroke="none" stroke-linecap="butt" stroke-linejoin="miter" stroke-opacity="1" stroke-width="1" font-family="sans-serif" font-size="17.386" font-style="normal" font-weight="normal" letter-spacing="0" transform="matrix(0.36381608,0,0,0.36381608,39.065943,-49.769854)" word-spacing="0" style="line-height:125%"><g id="g4212"><path id="path3580" fill="#fff" fill-opacity="1" fill-rule="evenodd" stroke="#000" stroke-linecap="butt" stroke-linejoin="miter" stroke-opacity="1" stroke-width="1" d="m 12.259199,27.496564 0,0 c -5.3750006,-3.1875 -9.8750006,-6.875 -9.8750006,-6.875 -3.25000002,-3.5625 2.25,-1.375 2.25,-1.375 l 9.4375006,3.3125 -0.125,0.875 -2.75,1.1875 1.0625,2.875 z"/><path id="path3584" fill="#aec8ff" fill-opacity="1" fill-rule="evenodd" stroke="#000" stroke-linecap="butt" stroke-linejoin="miter" stroke-opacity="1" stroke-width="1" d="m 20.134199,11.809064 c 3.0625,-3.1250004 7.1875,-5.0000004 13.4375,-5.6875004 5.9375,0.0625 8.6875,-0.25 15.5,3.6875002 1.8125,1.3750002 5.875,3.0000002 4.6875,5.8125002 -1.875,3.6875 -1.9375,3.4375 -2.875,6.8125 -0.9375,3.375 -0.1875,3.0625 -1.3125,4.625 -2,2.125 -0.5625,2 -3.125,3.125 -3.9375,-1.625 -3.1875,-1.3125 -5.375,-1.625 -3.75,-0.3125 -3.75,-0.4375 -8.4375,1.8125 -3.125,0.5 -0.6875,0.75 -3.875,0.375 -7.625,-3.75 -5.625,-4.9375 -9.5,-5.875 -3.875,-0.9375 -4.625,-0.125 -5,-1.875 0.125,-3.5 3.25,-8.4375 5.875,-11.1875 z"/><path id="path3590" fill="#fff" fill-opacity="1" fill-rule="evenodd" stroke="#000" stroke-linecap="butt" stroke-linejoin="miter" stroke-opacity="1" stroke-width="1" d="m 13.384199,27.996564 c 5.297585,0.188943 6.638919,3.826419 9.1875,5 3.074052,0.761552 5.028429,2.375 8.5625,2.5 3.897756,-1.875 9.678738,-1.6875 15.0625,-0.1875 2.854167,0.0625 4.195624,-1.969995 6.75,-7.5 1.365401,-4.211602 1.595132,-8.071349 3.6875,-10.125 1.218522,-0.992016 2.095584,-2.3125 -0.375,-3.3125 -2.751678,-0.5625 -3.917604,2.585208 -5.375,7.3125 -0.866148,4.169795 -2.550477,9.243988 -5.5,7.5 -5.193279,-1.74711 -3.085821,-1.1875 -5.5625,-1.3125 -4.636849,0.3125 -8.395754,3.890684 -14.4375,0.625 -4.474361,-3.277646 -5.971089,-4.108205 -11.3125,-5.4375 -1.183531,-0.314484 -6.3172856,0.272129 -0.6875,4.9375 z"/><path id="path3593" fill="#fff" fill-opacity="1" fill-rule="evenodd" stroke="#000" stroke-linecap="butt" stroke-linejoin="miter" stroke-opacity="1" stroke-width="1" d="m 12.852949,27.934064 c -0.368475,0.368475 -2.536534,2.323069 -3.7187506,4.5 -1.20044,2.21338 -1.463531,4.510439 -0.0625,7.5625 1.0989356,2.885369 4.2408836,3.216471 7.9375006,4.3125 1.571769,-0.263308 2.720072,0.717428 4.125,-0.875 1.14471,-1.26971 1.986444,-0.888556 0.9375,-3.25 -2.196366,-3.508866 -2.6875,-5.781912 -0.6875,-7.75 -0.5625,-1.440459 -1.226332,-2.163832 -4.25,-3.9375 -1.083493,-0.395993 -2.457936,-0.807093 -4.28125,-0.5625"/><path id="path3599" fill="#424242" fill-opacity=".807" fill-rule="evenodd" stroke="#000" stroke-linecap="butt" stroke-linejoin="miter" stroke-opacity="1" stroke-width="1" d="m 25.134199,34.121564 c -0.970491,1.282992 -0.875,1.449858 -0.625,3.1875 0.6875,1.629297 0.440925,2.282106 3.25,2.625 3.246444,-0.985264 3.28186,-2.9375 3.3125,-4.375 -3.60364,-0.125 -5.315448,-1.73809 -5.9375,-1.4375 z"/><path id="path3601" fill="#fff" fill-opacity="1" fill-rule="evenodd" stroke="#000" stroke-linecap="butt" stroke-linejoin="miter" stroke-opacity="1" stroke-width="1" d="m 30.259199,41.059064 c 0.22531,2.338738 3.310118,3.582539 8.125,4.375 3.634372,-0.246876 6.751263,1.432448 9.125,-2.125 0.428475,-2.651398 -0.180582,-6.5625 -2.1875,-8.1875 -2.136891,-1.875 -9.244146,-2.014842 -12.375,-0.8125 -2.713651,1.485461 -3.104781,4.643376 -2.6875,6.75 z"/><path id="path3604" fill="none" fill-opacity=".75" fill-rule="evenodd" stroke="#000" stroke-linecap="butt" stroke-linejoin="miter" stroke-opacity="1" stroke-width="1" d="m 20.321699,36.621564 c -4.354419,-0.625 -7.480252,-0.911169 -9,5.6875 5.003264,2.233519 8.318519,2.479861 9.5625,1.5625 3.447557,-2.429417 -0.106135,-5.030674 -0.5625,-7.25 z"/><path id="path3606" fill="none" fill-opacity=".75" fill-rule="evenodd" stroke="#000" stroke-linecap="butt" stroke-linejoin="miter" stroke-opacity="1" stroke-width="1" d="m 46.571699,37.371564 c -3.9375,0.210921 -7.545211,1.590422 -9.8125,7.3125 0.62799,0.74402 0.848073,0.736537 1.9375,0.8125 2.557194,-0.127653 5.252318,0.404511 7.125,-0.4375 3.19373,-2.098423 1.23591,-7.479771 0.6875,-7.5625"/><path id="path3608" fill="none" fill-opacity=".75" fill-rule="evenodd" stroke="#000" stroke-linecap="butt" stroke-linejoin="miter" stroke-opacity="1" stroke-width="1" d="m 15.634199,36.559064 c 0.983548,1.575644 2.169877,2.910245 1.3125,7.4375"/><path id="path3610" fill="none" fill-opacity=".75" fill-rule="evenodd" stroke="#000" stroke-linecap="butt" stroke-linejoin="miter" stroke-opacity="1" stroke-width="1" d="m 18.134199,36.371564 c 1.116487,2.079526 2.1875,4.098693 1.5625,7.8125"/><path id="path3612" fill="none" fill-opacity=".75" fill-rule="evenodd" stroke="#000" stroke-linecap="butt" stroke-linejoin="miter" stroke-opacity="1" stroke-width="1" d="m 39.759199,39.684064 c 1.378245,0.453726 3.221517,2.26107 3.6875,5.9375"/><path id="path3614" fill="none" fill-opacity=".75" fill-rule="evenodd" stroke="#000" stroke-linecap="butt" stroke-linejoin="miter" stroke-opacity="1" stroke-width="1" d="m 42.571699,37.934064 c 1.582853,1.518914 3.337186,2.661244 3.4375,6.8125"/><path id="path3616" fill="#fff" fill-opacity="1" fill-rule="evenodd" stroke="#000" stroke-linecap="butt" stroke-linejoin="miter" stroke-opacity="1" stroke-width="1" d="m 48.884199,34.621564 c -0.386501,3.141495 0.973032,7.860089 4.625,7.875 5.564984,0.573331 6.946372,-1.419357 8.25,-3.375 1.022706,-3.738528 -2.875055,-7.687541 -5.625,-10.1875 -1.095655,-0.977991 -1.259482,-0.9375 -2.625,-1 -2.085081,0.75 -2.547312,6.109812 -4.6875,6.6875"/><path id="path3618" fill="#fff" fill-opacity="1" fill-rule="evenodd" stroke="#000" stroke-linecap="butt" stroke-linejoin="miter" stroke-opacity="1" stroke-width="1" d="m 53.009199,42.246564 c 4.225947,1.350947 5.137967,0.112034 8,-1.9375 1.905568,-1.905567 0.684269,-6.128231 -2,-8.375 -2.573657,0.676343 -8.64878,5.28872 -6,10.3125 z"/><path id="path3620" fill="none" fill-opacity=".75" fill-rule="evenodd" stroke="#000" stroke-linecap="butt" stroke-linejoin="miter" stroke-opacity="1" stroke-width="1" d="m 53.759199,35.809064 c -0.02083,-0.02083 3.092115,1.555961 3.9375,6.1875"/><path id="path3622" fill="none" fill-opacity=".75" fill-rule="evenodd" stroke="#000" stroke-linecap="butt" stroke-linejoin="miter" stroke-opacity="1" stroke-width="1" d="m 56.134199,33.934064 c 1.092934,0.982335 3.503651,2.540377 4.375,6.5625"/><path id="path3624" fill="#fff" fill-opacity="1" fill-rule="evenodd" stroke="#000" stroke-linecap="butt" stroke-linejoin="miter" stroke-opacity="1" stroke-width="1" d="m 64.071699,12.496564 c 0.926831,-5.5411624 0.93441,-5.6070574 2.6875,-7.3125004 4.095083,-2.618187 -0.834907,12.5534584 7.625,7.1875004 0.414846,0.698961 2.976162,0.388372 3.8125,1.375 2.113032,1.881649 2.4375,2.720856 1.875,3.5625 -2.125,3.584757 -2.966594,1.966594 -5.8125,2.9375 -0.59465,1.71965 -2.022981,2.11512 -6.875,2.1875 -3.14781,0.271328 -3.613269,2.325192 -5,3.625 -1.526518,1.19413 -3.142417,3.587086 -9.3125,1.5625 1.449552,-4.122757 0.669419,-8.002064 4.0625,-10.375 5.133149,0.759513 5.675532,-2.226064 6.9375,-4.75 z"/><path id="path3626" fill="none" fill-opacity=".75" fill-rule="evenodd" stroke="#000" stroke-linecap="butt" stroke-linejoin="miter" stroke-opacity="1" stroke-width="1" d="m 68.509199,16.434064 c 1.18154,2.09822 2.756263,3.4375 6.25,3.5625"/><ellipse id="path3628" cx="75.634" cy="7.684" fill="#aec8ff" fill-opacity="1" fill-rule="evenodd" stroke="#000" stroke-linecap="butt" stroke-linejoin="miter" stroke-opacity="1" stroke-width="1" rx="3.375" ry="5.375"/><ellipse id="path5148" cx="71.697" cy="8.372" fill="#aec8ff" fill-opacity="1" fill-rule="evenodd" stroke="#000" stroke-linecap="butt" stroke-linejoin="miter" stroke-opacity="1" stroke-width="1" rx="3.375" ry="5.375"/><ellipse id="path5150" cx="72.884" cy="9.09" fill="#000" fill-opacity="1" rx="1.438" ry="2.219"/><ellipse id="path5912" cx="77.009" cy="8.153" fill="#000" fill-opacity="1" rx="1.313" ry="2.125"/><text stroke-opacity="1" style="line-height:0%" id="text3361" x="18.101" y="24.452" fill="#000" fill-opacity="1" stroke="none" stroke-linecap="butt" stroke-linejoin="miter" stroke-width="1" font-family="sans-serif" font-style="normal" font-weight="normal" letter-spacing="0" word-spacing="0" xml:space="preserve"><tspan id="tspan3363" x="18.101" y="24.452" font-family="Arial" font-size="16.25" font-stretch="normal" font-style="normal" font-variant="normal" font-weight="normal" style="line-height:1.25;-inkscape-font-specification:Arial">SVN</tspan></text></g></g></g></g></g></g></g></g></svg>