<svg xmlns="http://www.w3.org/2000/svg" xmlns:svg="http://www.w3.org/2000/svg" xmlns:xlink="http://www.w3.org/1999/xlink" id="svg2" width="420" height="373" version="1.0" viewBox="0 0 413.435 365.722" xml:space="preserve"><metadata id="metadata27"/><defs id="defs13"><linearGradient id="linearGradient5211"><stop id="stop5213" offset="0" stop-color="#fff" stop-opacity=".629"/><stop id="stop5215" offset="1" stop-color="#fff" stop-opacity="0"/></linearGradient><linearGradient id="linearGradient2893"><stop id="stop2895" offset="0" stop-color="#fff" stop-opacity=".574"/><stop id="stop2897" offset=".19" stop-color="#fff" stop-opacity=".251"/><stop id="stop2901" offset=".6" stop-color="#6b6b6b" stop-opacity=".125"/><stop id="stop2899" offset="1" stop-color="#000" stop-opacity=".125"/></linearGradient><radialGradient id="radialGradient3236" cx="847.041" cy="615.58" r="300" fx="847.041" fy="615.58" gradientTransform="matrix(1.215027,0,0,1.266667,-841.03957,-591.10063)" gradientUnits="userSpaceOnUse" xlink:href="#linearGradient2893"/><linearGradient id="linearGradient3139"><stop id="stop3141" offset="0" stop-color="#ff0" stop-opacity="1"/><stop id="stop3143" offset="1" stop-color="#ffffe8" stop-opacity="1"/></linearGradient><linearGradient id="linearGradient4105" x1="0" x2="413.435" y1="182.862" y2="182.862" gradientUnits="userSpaceOnUse" xlink:href="#linearGradient3139"/><linearGradient id="linearGradient5196" x1="109.462" x2="246.505" y1="322.426" y2="-79.848" gradientUnits="userSpaceOnUse" xlink:href="#linearGradient3139"/><radialGradient id="radialGradient5217" cx="260.701" cy="289.6" r="206.904" fx="260.701" fy="289.6" gradientTransform="matrix(-0.6101056,0.6619819,-0.6829184,-0.6294014,402.98608,80.149634)" gradientUnits="userSpaceOnUse" xlink:href="#linearGradient5211"/></defs><path id="path5" fill="#ff0" fill-opacity="1" fill-rule="nonzero" stroke="#df1800" stroke-linecap="round" stroke-linejoin="round" stroke-width="21.656" d="M 222.96725,25.584927 C 222.96725,25.584927 217.87808,14.575759 207.42113,14.576744 C 196.96419,14.576744 191.86222,25.583943 191.86222,25.583943 L 18.46388,325.93617 C 18.46388,325.93617 11.475854,335.84777 16.70383,344.90494 C 21.932792,353.96112 34.016889,352.87438 34.016889,352.87438 L 380.82931,352.8852 C 380.82931,352.8852 392.9075,353.98179 398.13548,344.92562 C 403.36444,335.87041 396.38232,325.94897 396.38232,325.94897 L 222.96725,25.584927 z"/><g id="Ebene_3" fill="#df1800" fill-opacity="1" transform="matrix(0.9843676,0,0,0.9843676,3.9346133,3.7486992)"><path id="path8" fill="#df1800" fill-opacity="1" d="M 244.087,136.653 C 243.021,141.087 223.689,221.907 221.288,231.408 C 218.888,240.91 216.62,249.914 214.481,258.419 C 214.481,258.419 213.37,263.785 207.558,263.785 L 205.806,263.785 C 199.994,263.785 198.883,258.419 198.883,258.419 C 196.744,249.914 194.477,240.91 192.076,231.408 C 189.676,221.907 170.347,141.087 169.278,136.653 C 155.581,79.854 258.166,78.283 244.087,136.653 z"/><circle id="circle10" cx="206.717" cy="308.546" r="24.256" fill="#df1800" fill-opacity="1"/></g><g id="layer1" display="inline"><path id="path5192" fill="#fff" fill-opacity="0" fill-rule="nonzero" stroke="none" stroke-linecap="round" stroke-linejoin="round" stroke-opacity="1" stroke-width="22" d="M 207.42187,3.7486992 C 190.78921,3.7486992 183.55747,17.86399 182.4743,20.175334 L 9.0717821,320.53052 L 9.1025436,320.53052 C 7.6189352,322.6589 -0.9830227,335.92595 7.3183772,350.30764 C 15.640504,364.72096 31.490758,363.90595 34.01935,363.68889 C 34.060847,363.68533 34.170035,363.69206 34.203919,363.68889 L 380.82439,363.71965 L 380.82439,363.68889 C 383.40046,363.90935 399.21989,364.7256 407.52536,350.3384 C 415.85694,335.91028 407.17871,322.58813 405.7412,320.53052 L 405.77196,320.53052 L 232.46173,20.390665 L 232.33868,20.175334 C 231.24163,17.833999 224.03503,3.7471353 207.42187,3.7486992 z"/></g></svg>